<svg xmlns="http://www.w3.org/2000/svg" xmlns:xlink="http://www.w3.org/1999/xlink" width="500" zoomAndPan="magnify" viewBox="0 0 375 374.999991" height="500" preserveAspectRatio="xMidYMid meet" version="1.0"><defs><g/><clipPath id="f49a2abc80"><path d="M 5 5 L 370 5 L 370 370 L 5 370 Z M 5 5 " clip-rule="nonzero"/></clipPath><clipPath id="27f1164053"><path d="M 31.925781 -16.816406 L 391.816406 31.925781 L 343.074219 391.816406 L -16.816406 343.074219 Z M 31.925781 -16.816406 " clip-rule="nonzero"/></clipPath><clipPath id="1311ee899a"><path d="M 211.871094 7.554688 C 311.25 21.015625 380.902344 112.492188 367.445312 211.871094 C 353.984375 311.253906 262.507812 380.90625 163.128906 367.445312 C 63.746094 353.984375 -5.90625 262.511719 7.554688 163.128906 C 21.015625 63.75 112.488281 -5.902344 211.871094 7.554688 L 202.121094 79.535156 C 142.492188 71.457031 87.609375 113.25 79.53125 172.878906 C 71.457031 232.507812 113.25 287.390625 172.875 295.46875 C 232.503906 303.542969 287.390625 261.75 295.464844 202.125 C 303.542969 142.496094 261.75 87.609375 202.121094 79.535156 Z M 211.871094 7.554688 " clip-rule="nonzero"/></clipPath><clipPath id="c86dd5430b"><path d="M 33 16 L 370 16 L 370 370 L 33 370 Z M 33 16 " clip-rule="nonzero"/></clipPath><clipPath id="bc7e48461f"><path d="M 69.3125 -7.457031 L 392.648438 36.335938 L 344.289062 393.414062 L 20.949219 349.621094 Z M 69.3125 -7.457031 " clip-rule="nonzero"/></clipPath><clipPath id="e12dc1e6ac"><path d="M 256.082031 19.363281 C 327.574219 48.523438 372.804688 119.703125 368.847656 196.808594 C 364.890625 273.917969 312.605469 340.089844 238.503906 361.777344 C 164.402344 383.464844 84.691406 355.921875 39.785156 293.117188 C 28.121094 276.800781 31.890625 254.117188 48.203125 242.449219 C 64.519531 230.785156 87.203125 234.554688 98.871094 250.871094 C 125.816406 288.554688 173.640625 305.078125 218.101562 292.066406 C 262.5625 279.054688 293.933594 239.351562 296.308594 193.085938 C 298.683594 146.820312 271.542969 104.113281 228.648438 86.617188 C 216.636719 81.71875 208.148438 70.78125 206.386719 57.925781 C 204.621094 45.070312 209.851562 32.25 220.101562 24.296875 C 230.351562 16.34375 244.066406 14.460938 256.082031 19.363281 Z M 256.082031 19.363281 " clip-rule="nonzero"/></clipPath></defs><rect x="-37.5" width="450" fill="#ffffff" y="-37.499999" height="449.999989" fill-opacity="1"/><rect x="-37.5" width="450" fill="#ffffff" y="-37.499999" height="449.999989" fill-opacity="1"/><g clip-path="url(#f49a2abc80)"><g clip-path="url(#27f1164053)"><g clip-path="url(#1311ee899a)"><path fill="#ffde59" d="M 31.925781 -16.816406 L 391.816406 31.925781 L 343.074219 391.816406 L -16.816406 343.074219 Z M 31.925781 -16.816406 " fill-opacity="1" fill-rule="nonzero"/></g></g></g><g clip-path="url(#c86dd5430b)"><g clip-path="url(#bc7e48461f)"><g clip-path="url(#e12dc1e6ac)"><path fill="#fe7f2d" d="M 31.925781 -16.816406 L 391.816406 31.925781 L 343.074219 391.816406 L -16.816406 343.074219 Z M 31.925781 -16.816406 " fill-opacity="1" fill-rule="nonzero"/></g></g></g><g fill="#fe7f2d" fill-opacity="1"><g transform="translate(82.521376, 290.403652)"><g><path d="M 30.691406 -4.007812 C 36.050781 -4.453125 41.25 -6.175781 46.265625 -9.394531 C 51.097656 -12.375 56.007812 -16.445312 60.574219 -21.558594 C 64.953125 -26.429688 69.253906 -31.941406 73.449219 -38.308594 C 77.644531 -44.671875 81.757812 -51.679688 85.609375 -59.082031 C 86.140625 -58.28125 86.859375 -57.722656 87.605469 -56.949219 C 88.136719 -56.148438 88.855469 -55.585938 89.789062 -55.050781 C 90.320312 -54.25 91.039062 -53.691406 91.785156 -52.917969 C 92.316406 -52.117188 93.035156 -51.554688 93.96875 -51.019531 C 98.386719 -46.800781 103.207031 -42.847656 108 -39.109375 C 112.792969 -35.371094 117.960938 -32.109375 123.472656 -29.542969 C 128.800781 -26.734375 134.503906 -24.410156 140.3125 -22.960938 C 146.121094 -21.511719 152.707031 -20.808594 159.609375 -21.011719 C 168.25 -21.214844 176.0625 -22.828125 182.597656 -26.015625 C 189.160156 -28.992188 194.285156 -33.089844 198.425781 -38.152344 C 202.375 -42.96875 205.183594 -48.296875 206.578125 -54.535156 C 207.976562 -60.769531 208.0625 -67.0625 206.847656 -73.40625 C 205.417969 -79.726562 202.519531 -85.652344 198.101562 -91.601562 C 193.6875 -97.554688 187.855469 -102.679688 180.398438 -106.957031 L 180.023438 -106.476562 C 180.785156 -98.558594 179.894531 -91.734375 177.59375 -85.820312 C 175.292969 -79.90625 171.792969 -74.925781 167.496094 -71.144531 C 163.011719 -67.128906 157.726562 -64.308594 151.886719 -62.503906 C 145.859375 -60.460938 139.460938 -59.671875 132.714844 -59.921875 C 125.785156 -59.929688 118.910156 -61.246094 112.140625 -63.441406 C 105.371094 -65.640625 98.898438 -68.953125 93.148438 -73.441406 L 93.496094 -74.132812 C 95.070312 -77.144531 96.808594 -80.605469 98.519531 -84.285156 C 100.234375 -87.960938 102.105469 -92.089844 104.164062 -96.457031 C 107.910156 -104.71875 112 -113.667969 116.441406 -123.3125 C 120.691406 -132.71875 125.371094 -142.175781 130.265625 -151.65625 C 135.15625 -161.140625 140.527344 -170.25 145.953125 -178.933594 C 151.402344 -187.402344 156.960938 -195.019531 162.621094 -201.78125 C 168.285156 -208.542969 174.101562 -214.027344 180.347656 -217.832031 C 180.511719 -220.015625 179.871094 -221.671875 178.648438 -222.820312 C 176.757812 -224.101562 174.066406 -224.851562 170.148438 -225.015625 C 166.253906 -224.96875 161.535156 -224.601562 156.230469 -223.730469 C 150.734375 -222.621094 145.082031 -221.054688 138.839844 -218.984375 C 132.601562 -216.914062 126.382812 -214.632812 120.035156 -211.679688 C 113.472656 -208.703125 107.390625 -205.355469 101.574219 -201.605469 C 95.542969 -197.828125 90.390625 -193.941406 85.71875 -189.683594 C 81.074219 -185.214844 77.121094 -180.394531 74.261719 -175.492188 C 71.214844 -170.351562 69.476562 -165.15625 69.253906 -159.929688 C 68.957031 -157.078125 69.300781 -154.304688 70.042969 -151.800781 C 70.8125 -149.078125 71.953125 -146.835938 73.871094 -145.34375 C 75.601562 -143.605469 78.105469 -142.617188 81.144531 -142.558594 C 84.210938 -142.289062 87.757812 -143.375 92.238281 -145.660156 C 88.222656 -150.144531 86.175781 -154.441406 85.648438 -158.707031 C 85.148438 -162.761719 85.953125 -166.757812 87.664062 -170.433594 C 89.351562 -174.324219 92.339844 -178.160156 96.1875 -182.097656 C 100.058594 -185.824219 104.378906 -189.390625 109.558594 -193.0625 C 114.546875 -196.492188 119.992188 -199.765625 125.699219 -202.636719 C 131.410156 -205.507812 137.386719 -207.976562 143.171875 -210.207031 C 148.988281 -212.226562 154.429688 -213.761719 159.683594 -215.0625 C 164.960938 -216.148438 169.628906 -216.941406 173.734375 -217.015625 C 168.347656 -215.050781 162.714844 -211.539062 157.296875 -206.320312 C 151.664062 -201.078125 145.921875 -194.953125 140.101562 -187.738281 C 134.09375 -180.28125 128.375 -172.214844 122.496094 -163.691406 C 116.621094 -155.167969 110.769531 -146.433594 104.890625 -137.910156 C 99.039062 -129.175781 93.136719 -120.867188 87.421875 -112.796875 C 81.488281 -104.703125 75.828125 -97.941406 70.488281 -92.082031 C 67.613281 -94.328125 64.550781 -96.332031 61.726562 -98.148438 C 58.691406 -99.9375 55.652344 -101.726562 52.457031 -103.066406 C 49.285156 -104.191406 45.953125 -104.863281 42.433594 -105.292969 C 38.917969 -105.726562 35.476562 -105.515625 31.691406 -104.617188 C 27.050781 -103.609375 22.753906 -101.5625 18.78125 -98.691406 C 14.804688 -95.816406 11.332031 -92.355469 8.339844 -88.523438 C 5.164062 -84.449219 2.464844 -80 0.269531 -74.964844 C -2.136719 -69.902344 -3.902344 -64.921875 -5.003906 -59.804688 C -6.71875 -52.660156 -7.34375 -45.4375 -6.929688 -38.558594 C -6.511719 -31.679688 -4.867188 -25.386719 -2.050781 -20.105469 C 0.582031 -14.582031 4.574219 -10.308594 9.929688 -7.289062 C 15.070312 -4.242188 22.132812 -3.167969 30.691406 -4.007812 Z M 32.042969 -71.957031 L 32.015625 -72.171875 C 27.699219 -72.070312 24.5 -73.410156 22.476562 -75.757812 C 20.457031 -78.105469 19.710938 -80.613281 19.769531 -83.652344 C 19.800781 -86.90625 21.164062 -89.890625 23.410156 -92.765625 C 25.679688 -95.425781 28.746094 -96.890625 33.066406 -96.988281 C 35.679688 -96.878906 38.316406 -96.554688 41.007812 -95.804688 C 43.726562 -94.839844 46.445312 -93.878906 49.1875 -92.699219 C 51.746094 -91.285156 54.117188 -89.628906 56.273438 -87.945312 C 58.214844 -86.234375 59.921875 -84.714844 60.984375 -83.113281 C 59.222656 -81.59375 57.246094 -80.050781 54.820312 -78.667969 C 52.390625 -77.285156 49.9375 -76.117188 47.457031 -75.160156 C 42.121094 -72.769531 36.839844 -71.683594 32.042969 -71.957031 Z M 32.042969 -71.957031 "/></g></g></g><g fill="#ffde59" fill-opacity="1"><g transform="translate(87.300827, 286.925965)"><g><path d="M 30.691406 -4.007812 C 36.050781 -4.453125 41.25 -6.175781 46.265625 -9.394531 C 51.097656 -12.375 56.007812 -16.445312 60.574219 -21.558594 C 64.953125 -26.429688 69.253906 -31.941406 73.449219 -38.308594 C 77.644531 -44.671875 81.757812 -51.679688 85.609375 -59.082031 C 86.140625 -58.28125 86.859375 -57.722656 87.605469 -56.949219 C 88.136719 -56.148438 88.855469 -55.585938 89.789062 -55.050781 C 90.320312 -54.25 91.039062 -53.691406 91.785156 -52.917969 C 92.316406 -52.117188 93.035156 -51.554688 93.96875 -51.019531 C 98.386719 -46.800781 103.207031 -42.847656 108 -39.109375 C 112.792969 -35.371094 117.960938 -32.109375 123.472656 -29.542969 C 128.800781 -26.734375 134.503906 -24.410156 140.3125 -22.960938 C 146.121094 -21.511719 152.707031 -20.808594 159.609375 -21.011719 C 168.25 -21.214844 176.0625 -22.828125 182.597656 -26.015625 C 189.160156 -28.992188 194.285156 -33.089844 198.425781 -38.152344 C 202.375 -42.96875 205.183594 -48.296875 206.578125 -54.535156 C 207.976562 -60.769531 208.0625 -67.0625 206.847656 -73.40625 C 205.417969 -79.726562 202.519531 -85.652344 198.101562 -91.601562 C 193.6875 -97.554688 187.855469 -102.679688 180.398438 -106.957031 L 180.023438 -106.476562 C 180.785156 -98.558594 179.894531 -91.734375 177.59375 -85.820312 C 175.292969 -79.90625 171.792969 -74.925781 167.496094 -71.144531 C 163.011719 -67.128906 157.726562 -64.308594 151.886719 -62.503906 C 145.859375 -60.460938 139.460938 -59.671875 132.714844 -59.921875 C 125.785156 -59.929688 118.910156 -61.246094 112.140625 -63.441406 C 105.371094 -65.640625 98.898438 -68.953125 93.148438 -73.441406 L 93.496094 -74.132812 C 95.070312 -77.144531 96.808594 -80.605469 98.519531 -84.285156 C 100.234375 -87.960938 102.105469 -92.089844 104.164062 -96.457031 C 107.910156 -104.71875 112 -113.667969 116.441406 -123.3125 C 120.691406 -132.71875 125.371094 -142.175781 130.265625 -151.65625 C 135.15625 -161.140625 140.527344 -170.25 145.953125 -178.933594 C 151.402344 -187.402344 156.960938 -195.019531 162.621094 -201.78125 C 168.285156 -208.542969 174.101562 -214.027344 180.347656 -217.832031 C 180.511719 -220.015625 179.871094 -221.671875 178.648438 -222.820312 C 176.757812 -224.101562 174.066406 -224.851562 170.148438 -225.015625 C 166.253906 -224.96875 161.535156 -224.601562 156.230469 -223.730469 C 150.734375 -222.621094 145.082031 -221.054688 138.839844 -218.984375 C 132.601562 -216.914062 126.382812 -214.632812 120.035156 -211.679688 C 113.472656 -208.703125 107.390625 -205.355469 101.574219 -201.605469 C 95.542969 -197.828125 90.390625 -193.941406 85.71875 -189.683594 C 81.074219 -185.214844 77.121094 -180.394531 74.261719 -175.492188 C 71.214844 -170.351562 69.476562 -165.15625 69.253906 -159.929688 C 68.957031 -157.078125 69.300781 -154.304688 70.042969 -151.800781 C 70.8125 -149.078125 71.953125 -146.835938 73.871094 -145.34375 C 75.601562 -143.605469 78.105469 -142.617188 81.144531 -142.558594 C 84.210938 -142.289062 87.757812 -143.375 92.238281 -145.660156 C 88.222656 -150.144531 86.175781 -154.441406 85.648438 -158.707031 C 85.148438 -162.761719 85.953125 -166.757812 87.664062 -170.433594 C 89.351562 -174.324219 92.339844 -178.160156 96.1875 -182.097656 C 100.058594 -185.824219 104.378906 -189.390625 109.558594 -193.0625 C 114.546875 -196.492188 119.992188 -199.765625 125.699219 -202.636719 C 131.410156 -205.507812 137.386719 -207.976562 143.171875 -210.207031 C 148.988281 -212.226562 154.429688 -213.761719 159.683594 -215.0625 C 164.960938 -216.148438 169.628906 -216.941406 173.734375 -217.015625 C 168.347656 -215.050781 162.714844 -211.539062 157.296875 -206.320312 C 151.664062 -201.078125 145.921875 -194.953125 140.101562 -187.738281 C 134.09375 -180.28125 128.375 -172.214844 122.496094 -163.691406 C 116.621094 -155.167969 110.769531 -146.433594 104.890625 -137.910156 C 99.039062 -129.175781 93.136719 -120.867188 87.421875 -112.796875 C 81.488281 -104.703125 75.828125 -97.941406 70.488281 -92.082031 C 67.613281 -94.328125 64.550781 -96.332031 61.726562 -98.148438 C 58.691406 -99.9375 55.652344 -101.726562 52.457031 -103.066406 C 49.285156 -104.191406 45.953125 -104.863281 42.433594 -105.292969 C 38.917969 -105.726562 35.476562 -105.515625 31.691406 -104.617188 C 27.050781 -103.609375 22.753906 -101.5625 18.78125 -98.691406 C 14.804688 -95.816406 11.332031 -92.355469 8.339844 -88.523438 C 5.164062 -84.449219 2.464844 -80 0.269531 -74.964844 C -2.136719 -69.902344 -3.902344 -64.921875 -5.003906 -59.804688 C -6.71875 -52.660156 -7.34375 -45.4375 -6.929688 -38.558594 C -6.511719 -31.679688 -4.867188 -25.386719 -2.050781 -20.105469 C 0.582031 -14.582031 4.574219 -10.308594 9.929688 -7.289062 C 15.070312 -4.242188 22.132812 -3.167969 30.691406 -4.007812 Z M 32.042969 -71.957031 L 32.015625 -72.171875 C 27.699219 -72.070312 24.5 -73.410156 22.476562 -75.757812 C 20.457031 -78.105469 19.710938 -80.613281 19.769531 -83.652344 C 19.800781 -86.90625 21.164062 -89.890625 23.410156 -92.765625 C 25.679688 -95.425781 28.746094 -96.890625 33.066406 -96.988281 C 35.679688 -96.878906 38.316406 -96.554688 41.007812 -95.804688 C 43.726562 -94.839844 46.445312 -93.878906 49.1875 -92.699219 C 51.746094 -91.285156 54.117188 -89.628906 56.273438 -87.945312 C 58.214844 -86.234375 59.921875 -84.714844 60.984375 -83.113281 C 59.222656 -81.59375 57.246094 -80.050781 54.820312 -78.667969 C 52.390625 -77.285156 49.9375 -76.117188 47.457031 -75.160156 C 42.121094 -72.769531 36.839844 -71.683594 32.042969 -71.957031 Z M 32.042969 -71.957031 "/></g></g></g></svg>